<svg xmlns="http://www.w3.org/2000/svg" width="900" height="290" style="font-family: -apple-system, BlinkMacSystemFont, 'Segoe UI', Helvetica, Arial, sans-serif;">
  <rect width="100%" height="100%" fill="#0d1117"/>
  <g>
    <line x1="40" y1="220.00" x2="860" y2="220.00" stroke="#30363d"/><text x="32" y="224.00" font-size="10" fill="#c9d1d9" text-anchor="end">0</text><line x1="40" y1="175.00" x2="860" y2="175.00" stroke="#30363d"/><text x="32" y="179.00" font-size="10" fill="#c9d1d9" text-anchor="end">500</text><line x1="40" y1="130.00" x2="860" y2="130.00" stroke="#30363d"/><text x="32" y="134.00" font-size="10" fill="#c9d1d9" text-anchor="end">1k</text><line x1="40" y1="85.00" x2="860" y2="85.00" stroke="#30363d"/><text x="32" y="89.00" font-size="10" fill="#c9d1d9" text-anchor="end">1.5k</text><line x1="40" y1="40.00" x2="860" y2="40.00" stroke="#30363d"/><text x="32" y="44.00" font-size="10" fill="#c9d1d9" text-anchor="end">2k</text>
    <line x1="40.00" y1="40" x2="40.00" y2="220" stroke="#30363d" opacity="0.5"/><line x1="204.00" y1="40" x2="204.00" y2="220" stroke="#30363d" opacity="0.5"/><line x1="368.00" y1="40" x2="368.00" y2="220" stroke="#30363d" opacity="0.5"/><line x1="532.00" y1="40" x2="532.00" y2="220" stroke="#30363d" opacity="0.5"/><line x1="696.00" y1="40" x2="696.00" y2="220" stroke="#30363d" opacity="0.5"/><line x1="860.00" y1="40" x2="860.00" y2="220" stroke="#30363d" opacity="0.5"/>
    <line x1="40" y1="220" x2="860" y2="220" stroke="#30363d"/>
    <line x1="40" y1="40"   x2="40"   y2="220" stroke="#30363d"/>
    <path d="M 40.00 102.91 L 204.00 101.11 L 368.00 101.11 L 532.00 93.91 L 696.00 83.11 L 860.00 76.09" fill="none" stroke="#3fb950" stroke-width="2"/>
    <circle cx="860.00" cy="76.09" r="3" fill="#3fb950"/>
    <text x="40.00" y="235.00" font-size="9" fill="#c9d1d9" text-anchor="middle" transform="rotate(-45 40.00 235.00)">14:45</text><text x="204.00" y="235.00" font-size="9" fill="#c9d1d9" text-anchor="middle" transform="rotate(-45 204.00 235.00)">14:59</text><text x="368.00" y="235.00" font-size="9" fill="#c9d1d9" text-anchor="middle" transform="rotate(-45 368.00 235.00)">13:03</text><text x="532.00" y="235.00" font-size="9" fill="#c9d1d9" text-anchor="middle" transform="rotate(-45 532.00 235.00)">16:43</text><text x="696.00" y="235.00" font-size="9" fill="#c9d1d9" text-anchor="middle" transform="rotate(-45 696.00 235.00)">16:43</text><text x="860.00" y="235.00" font-size="9" fill="#c9d1d9" text-anchor="middle" transform="rotate(-45 860.00 235.00)">16:43</text>
  </g>
</svg>